<svg width="590" height="174" viewBox="0 0 590 174" fill="none" xmlns="http://www.w3.org/2000/svg">
<path d="M185.893 37.1667H199.723L238.423 127H220.152L211.777 106.445H172.824L164.704 127H146.813L185.893 37.1667ZM206.194 92.7415L192.364 56.1992L178.28 92.7415H206.194ZM297.05 127H282.585V117.23H282.331C280.978 120.275 278.609 122.982 275.226 125.351C271.927 127.634 267.993 128.776 263.426 128.776C259.45 128.776 256.024 128.1 253.148 126.746C250.357 125.308 248.03 123.447 246.17 121.163C244.393 118.879 243.082 116.257 242.236 113.297C241.39 110.336 240.967 107.291 240.967 104.161V66.0961H256.193V99.847C256.193 101.623 256.32 103.484 256.574 105.43C256.828 107.375 257.378 109.152 258.223 110.759C259.069 112.282 260.211 113.55 261.649 114.565C263.172 115.581 265.16 116.088 267.613 116.088C269.981 116.088 272.054 115.623 273.83 114.692C275.691 113.677 277.171 112.408 278.271 110.886C279.455 109.363 280.343 107.629 280.935 105.684C281.528 103.653 281.824 101.623 281.824 99.5932V66.0961H297.05V127ZM301.495 78.2769V66.0961H312.153V48.4593H327.125V66.0961H342.351V78.2769H327.125V106.572C327.125 109.279 327.59 111.52 328.521 113.297C329.536 115.073 331.735 115.961 335.119 115.961C336.134 115.961 337.233 115.877 338.418 115.707C339.602 115.454 340.659 115.115 341.59 114.692L342.097 126.619C340.744 127.127 339.137 127.508 337.276 127.761C335.415 128.1 333.638 128.269 331.946 128.269C327.886 128.269 324.587 127.719 322.05 126.619C319.512 125.435 317.482 123.87 315.959 121.925C314.521 119.895 313.506 117.611 312.914 115.073C312.406 112.451 312.153 109.659 312.153 106.699V78.2769H301.495ZM403.869 127H389.405V117.23H389.151C387.798 120.275 385.429 122.982 382.046 125.351C378.747 127.634 374.813 128.776 370.245 128.776C366.27 128.776 362.844 128.1 359.968 126.746C357.176 125.308 354.85 123.447 352.989 121.163C351.213 118.879 349.902 116.257 349.056 113.297C348.21 110.336 347.787 107.291 347.787 104.161V66.0961H363.013V99.847C363.013 101.623 363.14 103.484 363.394 105.43C363.647 107.375 364.197 109.152 365.043 110.759C365.889 112.282 367.031 113.55 368.469 114.565C369.992 115.581 371.979 116.088 374.433 116.088C376.801 116.088 378.873 115.623 380.65 114.692C382.511 113.677 383.991 112.408 385.091 110.886C386.275 109.363 387.163 107.629 387.755 105.684C388.347 103.653 388.643 101.623 388.643 99.5932V66.0961H403.869V127ZM489.773 64.3197C493.749 64.3197 497.132 65.0387 499.924 66.4767C502.8 67.8302 505.126 69.6488 506.902 71.9327C508.763 74.2166 510.117 76.8389 510.963 79.7995C511.809 82.7601 512.232 85.8053 512.232 88.9351V127H497.006V93.2491C497.006 91.4727 496.879 89.6118 496.625 87.6662C496.371 85.7207 495.821 83.9866 494.975 82.464C494.13 80.8568 492.945 79.5457 491.423 78.5306C489.985 77.5156 488.039 77.008 485.586 77.008C483.218 77.008 481.188 77.5156 479.496 78.5306C477.804 79.5457 476.408 80.8568 475.309 82.464C474.209 84.0712 473.405 85.8899 472.898 87.92C472.39 89.8655 472.137 91.8111 472.137 93.7566V127H456.911V90.2039C456.911 86.3974 455.98 83.2676 454.119 80.8145C452.343 78.2769 449.509 77.008 445.618 77.008C443.334 77.008 441.346 77.5156 439.654 78.5306C437.963 79.4611 436.567 80.6876 435.467 82.2102C434.452 83.7328 433.649 85.5092 433.056 87.5393C432.549 89.4849 432.295 91.4727 432.295 93.5028V127H417.069V66.0961H431.534V75.8661H431.788C432.464 74.3435 433.353 72.9055 434.452 71.5521C435.636 70.1986 436.99 68.9721 438.512 67.8724C440.12 66.7728 441.938 65.9269 443.968 65.3348C445.999 64.6581 448.24 64.3197 450.693 64.3197C455.43 64.3197 459.364 65.3771 462.493 67.4918C465.623 69.6065 468.034 72.3979 469.726 75.8661C471.756 72.1442 474.463 69.3105 477.846 67.3649C481.23 65.3348 485.205 64.3197 489.773 64.3197ZM524.875 66.0961H539.34V75.8661H539.594C540.947 72.8209 543.273 70.1563 546.572 67.8724C549.956 65.504 553.932 64.3197 558.499 64.3197C562.475 64.3197 565.859 65.0387 568.65 66.4767C571.526 67.8302 573.852 69.6488 575.629 71.9327C577.49 74.2166 578.843 76.8389 579.689 79.7995C580.535 82.7601 580.958 85.8053 580.958 88.9351V127H565.732V93.2491C565.732 91.4727 565.605 89.6118 565.351 87.6662C565.097 85.7207 564.547 83.9866 563.702 82.464C562.856 80.8568 561.671 79.5457 560.149 78.5306C558.711 77.5156 556.765 77.008 554.312 77.008C551.859 77.008 549.744 77.5156 547.968 78.5306C546.192 79.4611 544.711 80.6876 543.527 82.2102C542.427 83.7328 541.582 85.5092 540.989 87.5393C540.397 89.4849 540.101 91.4727 540.101 93.5028V127H524.875V66.0961Z" fill="black"/>
<path d="M68.2371 14.4652C68.1922 15.4646 69.8733 18.3061 70.2824 20.4645C70.6914 22.6228 70.8046 25.1235 70.6914 27.4182C70.5782 29.7129 70.2374 31.9408 69.6006 34.2355C68.9639 36.5303 67.6686 39.5531 66.8737 41.1892C66.0788 42.8254 65.6915 43.0981 64.8285 44.0525C63.9654 45.007 62.3974 46.4386 61.6925 46.9158C60.9876 47.393 60.8512 47.0072 60.6017 46.9158C60.3522 46.8245 60.2608 46.8026 60.1927 46.3704C60.1245 45.9382 60.0331 45.1883 60.1927 44.3252C60.3522 43.4621 60.6467 42.28 61.1471 41.1892C61.6475 40.0985 62.8514 38.4391 63.1923 37.7806C63.5332 37.122 63.2837 37.3265 63.1923 37.2352C63.101 37.1438 63.829 36.053 62.6469 37.2352C61.4648 38.4173 57.8748 42.1437 56.1023 44.3252C54.3297 46.5068 53.2158 48.2111 52.0118 50.3245C50.8079 52.4379 49.6939 54.8689 48.8759 57.0055C48.0578 59.1421 47.5124 61.3236 47.1033 63.1411C46.6943 64.9586 46.4666 65.9812 46.4216 67.9133C46.3766 69.8453 46.967 73.5717 46.8306 74.7306C46.6943 75.8896 46.0576 75.0715 45.6035 74.867C45.1495 74.6625 44.5359 74.0257 44.1037 73.5035C43.6715 72.9813 43.2856 72.0269 43.0129 71.731C42.7402 71.4351 42.2398 70.7084 42.4675 71.731C42.6952 72.7536 44.0805 76.6395 44.3764 77.8666C44.6723 79.0937 44.4446 78.8892 44.24 79.0937C44.0355 79.2983 43.5583 79.3214 43.1493 79.0937C42.7402 78.866 42.308 78.4802 41.7858 77.7303C41.2636 76.9804 40.4905 75.8896 40.0133 74.5943C39.5361 73.299 39.082 71.2306 38.9225 69.9585C38.763 68.6864 38.7412 68.231 39.0589 66.9588C39.3765 65.6867 40.6269 63.0961 40.8314 62.323C41.0359 61.55 40.65 62.0735 40.286 62.323C39.9219 62.5726 39.6956 62.5957 38.6498 63.8229C37.604 65.05 35.173 67.9583 34.014 69.6858C32.8551 71.4133 32.2415 72.7986 31.6961 74.1852C31.1507 75.5719 31.0825 77.3662 30.7417 78.003C30.4008 78.6397 30.1513 78.5715 29.6509 78.003C29.1505 77.4344 28.1511 75.1629 27.742 74.5943C27.333 74.0257 27.2198 74.1621 27.1967 74.5943C27.1735 75.0265 27.5143 74.7538 27.6057 77.1849C27.697 79.616 27.3562 85.7516 27.742 89.1834C28.1279 92.6153 29.7641 96.3185 29.9236 97.7733C30.0831 99.2281 29.2187 98.2273 28.6965 97.9097C28.1743 97.592 27.3098 96.5912 26.7876 95.8644C26.2654 95.1377 25.8564 93.9324 25.5605 93.5465C25.2646 93.1607 24.9237 92.1381 25.0151 93.5465C25.1065 94.955 25.6518 99.8185 26.1059 102C26.5599 104.182 26.9008 104.908 27.742 106.636C28.5833 108.363 29.9236 110.749 31.1507 112.362C32.3778 113.975 34.468 115.453 35.1048 116.317C35.7415 117.18 35.6952 117.475 34.9684 117.544C34.2417 117.612 31.4466 116.771 30.7417 116.726C30.0368 116.681 29.4014 116.135 30.7417 117.271C32.082 118.407 36.786 122.134 38.7862 123.543C40.7864 124.951 41.5813 125.202 42.7402 125.724C43.8992 126.247 45.2177 126.315 45.7399 126.679C46.2621 127.043 46.1257 127.678 45.8762 127.906C45.6267 128.134 44.4677 127.906 44.24 128.042C44.0123 128.179 43.5583 128.27 44.5127 128.724C45.4672 129.178 48.4436 130.292 49.9666 130.769C51.4896 131.247 51.626 131.406 53.648 131.587C55.67 131.769 60.5335 131.519 62.1015 131.86C63.6695 132.201 62.4424 130.588 63.056 133.633C63.6695 136.677 64.6471 147.312 65.7829 150.131C66.9187 152.949 69.6006 152.153 69.8733 150.54C70.146 148.927 67.9413 142.949 67.4191 140.45C66.8969 137.951 66.8287 136.86 66.7373 135.541C66.646 134.223 66.7605 133.11 66.8737 132.542C66.9868 131.973 67.055 132.201 67.4191 132.133C67.7831 132.065 67.7149 131.883 69.0552 132.133C70.3955 132.382 73.8724 133.383 75.4635 133.633C77.0547 133.882 77.0547 133.769 78.5995 133.633C80.1443 133.496 83.7126 133.042 84.7352 132.815C85.7578 132.587 84.9397 132.429 84.7352 132.269C84.5306 132.11 83.6894 132.133 83.508 131.86C83.3267 131.587 83.144 130.882 83.6444 130.633C84.1448 130.383 85.0992 130.701 86.5077 130.36C87.9161 130.019 89.9395 129.61 92.0979 128.588C94.2563 127.565 97.0746 125.974 99.4606 124.225C101.847 122.475 105.255 119.203 106.414 118.089C107.573 116.975 106.868 117.567 106.414 117.544C105.96 117.52 104.165 118.089 103.687 117.953C103.21 117.816 103.119 117.407 103.551 116.726C103.983 116.044 105.324 115.271 106.278 113.862C107.232 112.454 108.551 110.068 109.278 108.272C110.004 106.476 110.392 104.887 110.641 103.091C110.891 101.295 111.118 100.728 110.777 97.5006C110.437 94.2733 109.05 86.0243 108.596 83.7295C108.142 81.4348 108.3 83.0928 108.051 83.7295C107.801 84.3663 107.778 86.1388 107.096 87.5473C106.414 88.9557 105.347 90.7514 103.96 92.1831C102.573 93.6147 100.234 95.1827 98.7789 96.1371C97.3241 97.0916 96.0288 97.637 95.2339 97.9097C94.439 98.1823 94.2113 97.9778 94.0068 97.7733C93.8022 97.5688 93.5295 97.5006 94.0068 96.6825C94.484 95.8644 95.9838 94.2965 96.87 92.8648C97.7563 91.4332 98.5744 90.1147 99.3243 88.0927C100.074 86.0706 100.937 83.5482 101.37 80.7299C101.802 77.9116 101.938 73.7312 101.915 71.1856C101.892 68.64 101.529 67.1634 101.233 65.459C100.937 63.7547 100.596 62.4362 100.142 60.9596C99.6883 59.4829 98.8703 57.3232 98.5062 56.5965C98.1422 55.8697 98.074 56.0061 97.9608 56.5965C97.8477 57.1868 98.1204 58.9375 97.8245 60.1415C97.5286 61.3454 97.0977 62.5507 96.1883 63.8229C95.2789 65.095 93.2119 67.1402 92.3706 67.7769C91.5293 68.4137 91.348 67.8683 91.1435 67.6406C90.939 67.4129 90.8708 67.2547 91.1435 66.4135C91.4162 65.5722 92.4388 64.1405 92.7796 62.5957C93.1205 61.0509 93.325 59.2321 93.1887 57.1419C93.0523 55.0516 92.7565 53.5518 91.9616 50.0518C91.1667 46.5518 89.0983 38.4623 88.4165 36.1444C87.7348 33.8265 87.9843 35.5758 87.8711 36.1444C87.758 36.713 88.0075 38.9627 87.7348 39.5531C87.4621 40.1435 87.0981 41.0761 86.235 39.6894C85.3719 38.3028 83.9621 33.8947 82.5536 31.2359C81.1451 28.5771 79.7817 26.4406 77.7815 23.7368C75.7812 21.033 71.759 16.5554 70.5551 15.0106C69.3511 13.4658 70.9409 14.5565 70.5551 14.4652C70.1692 14.3738 68.2821 13.4658 68.2371 14.4652Z" fill="black"/>
</svg>
