<svg width="827" height="98" viewBox="0 0 827 98" fill="none" xmlns="http://www.w3.org/2000/svg">
<path d="M34.6988 0H0V97.5904H34.6988V0Z" fill="black"/>
<path d="M144 0H107.133V97.5904H144V0Z" fill="black"/>
<path d="M142.914 31.4458V0L73.2997 0V31.4458L142.914 31.4458Z" fill="black"/>
<path d="M144 97.5903V66.1445H73.3012V97.5903H144Z" fill="black"/>
<path d="M73.2969 66.1441V31.4453L34.6945 31.4453V66.1441H73.2969Z" fill="black"/>
<path d="M185.828 83.0001V14.8401H209.252C217.316 14.8401 223.364 16.3121 227.396 19.2561C231.428 22.2001 233.444 26.8401 233.444 33.1761C233.444 37.0161 232.356 40.2481 230.18 42.8721C228.068 45.4321 225.124 47.0641 221.348 47.7681C226.02 48.4081 229.668 50.2321 232.292 53.2401C234.98 56.1841 236.324 59.8641 236.324 64.2801C236.324 70.4881 234.308 75.1601 230.276 78.2961C226.244 81.4321 220.516 83.0001 213.092 83.0001H185.828ZM194.084 44.3121H209.252C214.244 44.3121 218.084 43.3841 220.772 41.5281C223.46 39.6081 224.804 36.9521 224.804 33.5601C224.804 26.4561 219.62 22.9041 209.252 22.9041H194.084V44.3121ZM194.084 74.9361H213.092C217.764 74.9361 221.348 73.9761 223.844 72.0561C226.404 70.1361 227.684 67.3841 227.684 63.8001C227.684 60.2161 226.404 57.4321 223.844 55.4481C221.348 53.4001 217.764 52.3761 213.092 52.3761H194.084V74.9361ZM249.297 83.0001V14.8401H292.113V22.9041H257.553V44.8881H290.961V52.7601H257.553V74.9361H292.881V83.0001H249.297ZM320.677 83.0001V22.9041H299.461V14.8401H350.149V22.9041H328.933V83.0001H320.677ZM374.583 83.0001V22.9041H353.367V14.8401H404.055V22.9041H382.839V83.0001H374.583ZM411.109 83.0001V14.8401H453.925V22.9041H419.365V44.8881H452.773V52.7601H419.365V74.9361H454.693V83.0001H411.109ZM468.016 83.0001V14.8401H493.84C501.008 14.8401 506.672 16.6961 510.832 20.4081C514.992 24.1201 517.072 29.1441 517.072 35.4801C517.072 38.1041 516.528 40.5041 515.44 42.6801C514.352 44.7921 512.944 46.5841 511.216 48.0561C509.488 49.5281 507.6 50.5521 505.552 51.1281C508.56 51.6401 510.928 52.8561 512.656 54.7761C514.448 56.6961 515.504 59.4161 515.824 62.9361L517.744 83.0001H509.392L507.663 63.8001C507.408 60.9841 506.384 58.9041 504.592 57.5601C502.864 56.2161 500.016 55.5441 496.048 55.5441H476.272V83.0001H468.016ZM476.272 47.4801H494.896C499.056 47.4801 502.352 46.4241 504.784 44.3121C507.216 42.2001 508.432 39.1921 508.432 35.2881C508.432 31.3201 507.184 28.2801 504.688 26.1681C502.192 23.9921 498.576 22.9041 493.84 22.9041H476.272V47.4801ZM527.908 58.8081V51.2241H559.684V58.8081H527.908ZM565.822 83.0001L590.398 14.8401H601.534L626.11 83.0001H617.086L610.27 63.6081H581.662L574.846 83.0001H565.822ZM584.446 55.5441H607.486L595.966 22.0401L584.446 55.5441ZM659.647 84.5361C654.399 84.5361 649.823 83.5121 645.919 81.4641C642.079 79.4161 639.103 76.5041 636.991 72.7281C634.943 68.8881 633.919 64.3761 633.919 59.1921V14.7441H642.175V59.1921C642.175 64.6961 643.679 68.9521 646.687 71.9601C649.759 74.9681 654.079 76.4721 659.647 76.4721C665.151 76.4721 669.407 74.9681 672.415 71.9601C675.487 68.9521 677.023 64.6961 677.023 59.1921V14.7441H685.279V59.1921C685.279 64.3761 684.223 68.8881 682.111 72.7281C680.063 76.5041 677.119 79.4161 673.279 81.4641C669.439 83.5121 664.895 84.5361 659.647 84.5361ZM715.083 83.0001V22.9041H693.867V14.8401H744.555V22.9041H723.339V83.0001H715.083ZM751.609 83.0001V14.8401H759.865V44.6961H794.137V14.8401H802.393V83.0001H794.137V52.7601H759.865V83.0001H751.609ZM815.439 83.0001V72.1521H826.287V83.0001H815.439Z" fill="black"/>
</svg>
