<svg width="172" height="40" viewBox="0 0 172 40" fill="none" xmlns="http://www.w3.org/2000/svg">
<path d="M23.3606 12.8291C21.8137 13.2883 20.6476 14.3271 19.7936 15.4554C19.6102 15.6976 19.228 15.5156 19.3008 15.2188C20.936 8.49499 18.7759 2.90654 12.0422 0.155711C11.7006 0.0157201 11.345 0.3223 11.4346 0.680678C14.4977 12.9789 1.61412 11.9416 3.24224 25.8833C3.27024 26.1227 3.00145 26.2865 2.80546 26.1465C2.19509 25.7083 1.51332 24.7942 1.04575 24.1516C0.908555 23.9626 0.611769 24.0158 0.548773 24.2412C0.176391 25.5879 0 26.8563 0 28.1162C0 33.0159 2.51847 37.329 6.33048 39.8293C6.54887 39.9721 6.82886 39.7677 6.75466 39.5171C6.55867 38.8591 6.44808 38.1648 6.43968 37.4466C6.43968 37.0056 6.46768 36.5549 6.53627 36.1349C6.69587 35.0794 7.06265 34.0742 7.67862 33.1587C9.79111 29.9879 14.0259 26.9249 13.3497 22.7657C13.3063 22.5025 13.6171 22.329 13.8131 22.5095C16.7964 25.2352 17.3871 28.9015 16.8972 32.1899C16.8552 32.4755 17.2135 32.6281 17.3941 32.4041C17.8505 31.833 18.4077 31.3318 19.0138 30.9552C19.165 30.8614 19.3666 30.9328 19.424 31.1008C19.7614 32.0821 20.2626 33.0033 20.7358 33.9244C21.3013 35.0318 21.6023 36.2959 21.5547 37.6342C21.5309 38.2852 21.4231 38.9151 21.2425 39.5143C21.1655 39.7677 21.4427 39.9791 21.6653 39.8335C25.4801 37.3332 28 33.0201 28 28.1176C28 26.4139 27.7018 24.7438 27.1376 23.1787C25.9547 19.8959 22.9533 17.4307 23.712 13.1525C23.7484 12.9481 23.5594 12.7703 23.3606 12.8291Z" fill="black"/>
<path d="M41 34.0512V10.9609H55.7586V14.3255H44.7969V21.0217H53.8436V24.2873H44.7969V34.0512H41Z" fill="black"/>
<path d="M59.9605 14.7882C58.7388 14.7882 57.7812 13.8976 57.7812 12.6441C57.7812 11.3906 58.7388 10.5 59.9605 10.5C61.1821 10.5 62.1396 11.3906 62.1396 12.6441C62.1396 13.8976 61.1821 14.7882 59.9605 14.7882ZM58.1445 34.0521V17.1632H61.7104V34.0521H58.1445Z" fill="black"/>
<path d="M73.5905 17.1641H74.3829V20.4957H72.798C69.6284 20.4957 68.6049 22.9696 68.6049 25.5756V34.053H65.0391V17.1641H68.2087L68.6049 19.704C69.4633 18.2856 70.817 17.1641 73.5905 17.1641Z" fill="black"/>
<path d="M83.6348 34.2495C78.3191 34.2495 74.9844 30.8189 74.9844 25.6401C74.9844 20.4283 78.3191 16.9648 83.3047 16.9648C88.1912 16.9648 91.4598 20.0655 91.5589 25.0134C91.5589 25.4422 91.5259 25.904 91.4598 26.3658H78.7153V26.5967C78.8144 29.4665 80.6303 31.3467 83.4367 31.3467C85.6158 31.3467 87.2007 30.2582 87.6959 28.378H91.2617C90.6674 31.7096 87.828 34.2495 83.6348 34.2495ZM78.8474 23.7599H87.861C87.5638 21.253 85.814 19.8346 83.3377 19.8346C81.0595 19.8346 79.1115 21.3519 78.8474 23.7599Z" fill="black"/>
<path d="M102.035 34.2495C96.917 34.2495 93.6484 30.9179 93.6484 25.6401C93.6484 20.4283 97.0161 16.9648 102.134 16.9648C106.492 16.9648 109.199 19.3728 109.893 23.1992H106.162C105.7 21.22 104.28 19.9995 102.068 19.9995C99.1952 19.9995 97.3132 22.3085 97.3132 25.6401C97.3132 28.9387 99.1952 31.2148 102.068 31.2148C104.247 31.2148 105.7 29.9613 106.129 28.0151H109.893C109.232 31.8415 106.36 34.2495 102.035 34.2495Z" fill="black"/>
<path d="M121.004 17.1641H121.797V20.4957H120.212C117.042 20.4957 116.019 22.9696 116.019 25.5756V34.053H112.453V17.1641H115.623L116.019 19.704C116.877 18.2856 118.231 17.1641 121.004 17.1641Z" fill="black"/>
<path d="M130.613 16.9648C135.103 16.9648 137.678 19.1089 137.678 23.1002V34.0516H134.575L134.278 31.6436C133.122 33.161 131.504 34.2495 128.83 34.2495C125.132 34.2495 122.656 32.4353 122.656 29.3016C122.656 25.838 125.165 23.8919 129.919 23.8919H134.146V22.8693C134.146 20.9891 132.792 19.8346 130.448 19.8346C128.335 19.8346 126.915 20.8242 126.651 22.3085H123.151C123.514 19.0099 126.354 16.9648 130.613 16.9648ZM129.424 31.4787C132.396 31.4787 134.113 29.7304 134.146 27.1245V26.5307H129.721C127.509 26.5307 126.288 27.3554 126.288 29.0707C126.288 30.4891 127.476 31.4787 129.424 31.4787Z" fill="black"/>
<path d="M144.655 34.053L139.141 17.1641H142.905L146.768 30.0946L150.631 17.1641H153.899L157.597 30.0946L161.592 17.1641H165.224L159.611 34.053H155.781L152.216 22.5738L148.518 34.053H144.655Z" fill="black"/>
<path d="M166.938 34.0512V10.9609H170.503V34.0512H166.938Z" fill="black"/>
</svg>
