<svg width="580" height="160" viewBox="0 0 580 160" fill="none" xmlns="http://www.w3.org/2000/svg">
<g clip-path="url(#clip0_112_13)">
<g clip-path="url(#clip1_112_13)">
<mask id="mask0_112_13" style="mask-type:luminance" maskUnits="userSpaceOnUse" x="-121" y="-121" width="823" height="368">
<path d="M701.154 -121H-121V247H701.154V-121Z" fill="white"/>
</mask>
<g mask="url(#mask0_112_13)">
<path d="M63.0049 1.66602C29.2719 1.66602 1.67188 29.266 1.67188 62.999C1.67188 96.733 29.2719 124.333 63.0049 124.333C96.7389 124.333 124.339 96.903 124.339 62.999C124.339 29.095 96.9089 1.66602 63.0049 1.66602ZM63.0049 102.355C42.0499 102.355 25.1829 85.148 25.1829 62.999C25.1829 40.851 42.0499 23.643 63.0049 23.643C83.9609 23.643 100.827 40.851 100.827 62.999C100.827 85.148 83.9609 102.355 63.0049 102.355Z" fill="black"/>
<path d="M186.344 35.74C175.27 35.74 164.536 40.17 158.914 47.666V37.444H136.766V156.703H158.914V113.6C164.536 120.585 174.929 124.333 186.344 124.333C210.195 124.333 228.936 105.592 228.936 80.037C228.936 54.481 210.195 35.74 186.344 35.74ZM182.595 105.081C169.988 105.081 158.744 95.2 158.744 80.037C158.744 64.874 169.988 54.992 182.595 54.992C195.203 54.992 206.447 64.874 206.447 80.037C206.447 95.2 195.203 105.081 182.595 105.081Z" fill="black"/>
<path d="M281.079 35.74C256.886 35.74 237.805 54.652 237.805 80.037C237.805 105.422 254.501 124.333 281.76 124.333C304.079 124.333 318.39 110.874 322.82 95.711H301.183C298.457 102.015 290.79 106.444 281.59 106.444C270.175 106.444 261.486 98.437 259.442 87.022H323.842V78.333C323.842 55.162 307.657 35.74 281.079 35.74ZM259.612 71.348C261.998 60.615 270.857 53.629 281.59 53.629C293.005 53.629 301.693 61.125 302.716 71.348H259.612Z" fill="black"/>
<path d="M382.787 35.74C372.905 35.74 362.512 40.17 357.742 47.496V37.444H335.594V122.629H357.742V76.8C357.742 63.51 364.897 54.822 376.482 54.822C387.216 54.822 393.007 63 393.007 74.415V122.629H415.156V70.837C415.156 49.711 402.207 35.74 382.787 35.74Z" fill="black"/>
<path d="M471.879 3.37305L423.664 122.633H447.346L457.567 96.566H512.428L522.649 122.633H546.669L498.797 3.37305H471.879ZM465.233 76.803L484.997 26.884L504.587 76.803H465.233Z" fill="black"/>
<path d="M578.19 3.37305H555.703V122.633H578.19V3.37305Z" fill="black"/>
</g>
</g>
</g>
<defs>
<clipPath id="clip0_112_13">
<rect width="580" height="160" fill="white"/>
</clipPath>
<clipPath id="clip1_112_13">
<rect width="823" height="368" fill="white" transform="translate(-124 -123)"/>
</clipPath>
</defs>
</svg>
