<svg width="1536" height="226" viewBox="0 0 1536 226" fill="none" xmlns="http://www.w3.org/2000/svg">
<g clip-path="url(#clip0_2001_2101)">
<path d="M113.888 154.181H105.546C102.634 154.181 100.251 156.618 100.251 159.625V219.587C100.251 222.604 102.634 225.031 105.546 225.031H113.888C116.81 225.031 119.183 222.604 119.183 219.587V159.625C119.183 156.618 116.81 154.181 113.888 154.181ZM112.422 103.682L43.6592 33.0865C41.5953 30.9639 38.2488 30.9639 36.1753 33.0865L30.2827 39.1397C28.2092 41.2721 28.2092 44.7213 30.2827 46.8439L84.4349 102.443L86.0648 104.124H5.29456C2.37237 104.124 -0.000106812 106.551 -0.000106812 109.568V118.127C-0.000106812 121.144 2.37237 123.571 5.29456 123.571H85.5633L83.9334 125.241L30.2827 180.33C28.2092 182.452 28.2092 185.901 30.2827 188.034L36.1753 194.087C38.2488 196.21 41.5953 196.21 43.6592 194.087L112.422 123.492C117.746 118.019 117.746 109.145 112.422 103.682ZM191.225 179.18L146.978 133.751C144.914 131.629 141.567 131.629 139.503 133.751L133.601 139.814C131.528 141.937 131.528 145.386 133.601 147.509L177.849 192.937C179.913 195.06 183.259 195.06 185.333 192.937L191.225 186.884C193.299 184.752 193.299 181.303 191.225 179.18ZM198.14 93.2455C187.753 93.2455 179.295 101.893 179.295 112.604C179.295 123.315 187.734 131.963 198.14 131.963C208.546 131.963 216.994 123.315 216.994 112.604C216.994 101.893 208.536 93.2455 198.14 93.2455ZM189.393 36.005L183.5 29.9518C181.427 27.8292 178.08 27.8292 176.016 29.9518L131.769 75.3806C129.695 77.5032 129.695 80.9523 131.769 83.0749L137.671 89.138C139.735 91.2606 143.081 91.2606 145.145 89.138L189.393 43.7092C191.466 41.5866 191.466 38.1374 189.393 36.005ZM113.888 0H105.546C102.634 0 100.251 2.42719 100.251 5.44399V65.4065C100.251 68.4135 102.634 70.8407 105.546 70.8407H113.888C116.81 70.8407 119.183 68.4135 119.183 65.4065V5.44399C119.183 2.42719 116.81 0 113.888 0Z" fill="black"/>
</g>
<path d="M1484.42 0V77.6321C1475.29 63.0657 1458.2 52.6663 1432.86 52.6663C1391.34 52.6663 1360.7 83.8825 1360.7 130.281C1360.7 179.633 1391.34 207.896 1432.86 207.896C1458.2 207.896 1474.39 195.703 1484.42 181.716L1487.65 206.102H1508.58V0H1484.42ZM1435.23 186.173C1405.48 186.173 1385.45 163.291 1385.45 130.281C1385.45 97.2713 1405.48 74.3709 1435.23 74.3709C1464.99 74.3709 1484.71 97.5611 1484.71 130.861C1484.71 164.161 1464.68 186.173 1435.23 186.173ZM1352.62 54.4418C1325.81 54.4418 1314.33 65.7471 1307.26 77.3422L1304.01 54.4418H1283.1V206.102H1307.26V128.795C1307.26 104.699 1315.8 78.2299 1347.31 78.2299H1359.39V54.4418H1352.62ZM1047.46 186.173C1018.01 186.173 999.15 163.581 999.15 130.571C999.15 97.5611 1018.59 74.3709 1047.46 74.3709C1069.55 74.3709 1084.29 86.5639 1088.7 106.493H1114.03C1107.85 73.4832 1084.58 52.6663 1047.75 52.6663C1004.16 52.6663 974.402 84.1905 974.402 130.571C974.402 176.951 1002.69 207.896 1047.18 207.896C1083.7 207.896 1108.14 187.079 1114.03 154.069H1088.7C1083.98 173.69 1069.55 186.173 1047.46 186.173ZM960.978 135.028V126.404C960.978 80.3134 932.407 52.6663 890.269 52.6663C848.13 52.6663 818.985 84.1905 818.985 130.281C818.985 176.372 848.453 207.896 893.517 207.896C928.279 207.896 953.602 185.593 959.506 155.247H935.045C930.038 174.886 913.545 186.173 891.758 186.173C863.169 186.173 844.325 165.954 844.325 137.111V135.028H960.978ZM890.574 74.0629C915.609 74.0629 933.287 88.6474 935.638 114.519H845.205C847.861 89.2453 868.482 74.0629 890.574 74.0629ZM810.909 54.4418C784.097 54.4418 772.611 65.7471 765.54 77.3422L762.31 54.4418H741.384V206.102H765.54V128.795C765.54 104.699 774.083 78.2299 805.615 78.2299H817.693V54.4418H810.909ZM646.824 52.6663C602.945 52.6663 572.292 84.1905 572.292 130.281C572.292 176.372 602.945 207.896 646.824 207.896C690.703 207.896 721.356 176.372 721.356 130.281C721.356 84.1905 690.721 52.6663 646.824 52.6663ZM646.824 186.173C617.069 186.173 597.04 162.693 597.04 130.281C597.04 97.8691 617.069 74.3709 646.824 74.3709C676.579 74.3709 696.608 97.8691 696.608 130.281C696.608 162.693 676.579 186.173 646.824 186.173ZM493.381 186.173C463.931 186.173 445.069 163.581 445.069 130.571C445.069 97.5611 464.523 74.3709 493.381 74.3709C515.473 74.3709 530.208 86.5639 534.622 106.493H559.963C553.771 73.4832 530.495 52.6663 493.686 52.6663C450.076 52.6663 420.339 84.1905 420.339 130.571C420.339 176.951 448.605 207.896 493.094 207.896C529.615 207.896 554.076 187.079 559.963 154.069H534.622C529.92 173.69 515.473 186.173 493.381 186.173ZM346.094 118.378C324.289 115.697 308.676 112.436 308.676 95.7857C308.676 81.5092 321.346 73.7731 342.846 73.7731C364.346 73.7731 378.201 85.0783 379.977 99.6446H404.708C402.357 69.0082 377.608 52.6663 343.438 52.6663C309.268 52.6663 284.538 70.4938 284.538 98.159C284.538 130.571 311.924 136.821 346.094 140.988C367.899 143.652 383.495 147.221 383.495 163.291C383.495 178.455 369.658 186.771 347.566 186.771C322.53 186.771 306.917 173.998 306.038 156.153H281.289C282.169 189.452 308.676 207.896 347.566 207.896C380.857 207.896 407.669 190.34 407.669 162.095C407.669 129.375 380.264 122.545 346.094 118.378Z" fill="black"/>
<path d="M1194.42 52.6404C1232.72 52.6406 1254.81 71.9714 1254.81 107.354V205.913L1235.52 206.076L1231.82 182.578C1222.99 196.256 1207.38 207.87 1181.47 207.87C1148.46 207.87 1126.08 191.201 1126.08 163.554C1126.08 133.226 1146.99 116.269 1186.47 116.268H1230.66V105.869C1230.66 85.3421 1216.8 74.3446 1193.24 74.3445C1171.15 74.3446 1157.89 84.4542 1154.94 99.908H1130.79C1134.32 70.1778 1158.19 52.6405 1194.42 52.6404ZM1184.11 136.799C1162.61 136.799 1150.53 144.825 1150.53 162.073C1150.53 178.125 1163.2 187.056 1183.23 187.056C1213.27 187.056 1230.66 169.501 1230.66 144.227V136.799H1184.11Z" fill="black"/>
<defs>
<clipPath id="clip0_2001_2101">
<rect width="216.995" height="225.031" fill="white"/>
</clipPath>
</defs>
</svg>
