<svg width="588" height="165" viewBox="0 0 588 165" fill="none" xmlns="http://www.w3.org/2000/svg">
<g clip-path="url(#clip0_3823_207607)">
<path d="M17.6013 3.14158C33.1184 -4.38974 51.8029 2.08407 59.3342 17.6013L81.1829 62.6172L103.386 17.4584C110.996 1.97978 129.713 -4.39886 145.192 3.21133C160.67 10.8215 167.049 29.5387 159.438 45.0174L109.029 147.548C103.763 158.258 92.8558 165.03 80.9224 165C68.9891 164.969 58.1162 158.141 52.9056 147.406L3.14158 44.8745C-4.38974 29.3574 2.08407 10.6729 17.6013 3.14158ZM240.828 0.00721276C252.761 0.037579 263.634 6.86555 268.845 17.6013L318.609 120.132C323.306 129.812 322.692 141.227 316.982 150.345C311.271 159.462 301.27 165 290.512 165H190.338C179.552 165 169.528 159.433 163.826 150.277C158.126 141.12 157.552 129.669 162.312 119.99L212.722 17.4584C217.987 6.7494 228.894 -0.0231512 240.828 0.00721276ZM354.742 31.2379C354.742 13.9896 368.724 0.00711161 385.972 0.00711161H430.167C431.035 0.00711161 431.901 0.0432413 432.766 0.115406L445.188 1.15254C448.918 1.46402 455.521 2.3548 462.467 6.0271C498.64 25.1508 498.64 77.3947 462.467 96.5184C455.521 100.191 448.918 101.081 445.188 101.393L432.766 102.43C431.901 102.502 431.035 102.538 430.167 102.538H417.204V133.77C417.204 151.017 403.221 165 385.972 165C368.724 165 354.742 151.017 354.742 133.77V31.2379ZM550.966 0.00711161C568.214 0.00711161 582.196 13.9896 582.196 31.2379V133.77C582.196 151.017 568.214 165 550.966 165C533.717 165 519.735 151.017 519.735 133.77V31.2379C519.735 13.9896 533.717 0.00711161 550.966 0.00711161ZM240.495 102.538H240.639L240.567 102.39L240.495 102.538Z" fill="#18181B"/>
</g>
<defs>
<clipPath id="clip0_3823_207607">
<rect width="587.812" height="165" fill="white"/>
</clipPath>
</defs>
</svg>
